<svg xmlns="http://www.w3.org/2000/svg" xmlns:xlink="http://www.w3.org/1999/xlink" width="1920" zoomAndPan="magnify" viewBox="0 0 1440 337.499995" height="450" preserveAspectRatio="xMidYMid meet" version="1.0"><defs><g/><clipPath id="d0c3f42048"><path d="M 1188 72 L 1374 72 L 1374 274 L 1188 274 Z M 1188 72 " clip-rule="nonzero"/></clipPath><clipPath id="d9caea6da9"><path d="M 1392.9375 -5.734375 L 1493.222656 184.367188 L 1254.765625 310.160156 L 1154.480469 120.058594 Z M 1392.9375 -5.734375 " clip-rule="nonzero"/></clipPath><clipPath id="15d98ce57e"><path d="M 1392.9375 -5.734375 L 1493.222656 184.367188 L 1254.765625 310.160156 L 1154.480469 120.058594 Z M 1392.9375 -5.734375 " clip-rule="nonzero"/></clipPath><clipPath id="97eab1f454"><path d="M 1377 26 L 1410 26 L 1410 63 L 1377 63 Z M 1377 26 " clip-rule="nonzero"/></clipPath><clipPath id="0eab03a43d"><path d="M 1392.9375 -5.734375 L 1493.222656 184.367188 L 1254.765625 310.160156 L 1154.480469 120.058594 Z M 1392.9375 -5.734375 " clip-rule="nonzero"/></clipPath><clipPath id="7412ada5c7"><path d="M 1392.9375 -5.734375 L 1493.222656 184.367188 L 1254.765625 310.160156 L 1154.480469 120.058594 Z M 1392.9375 -5.734375 " clip-rule="nonzero"/></clipPath><clipPath id="5ffced3f07"><path d="M 1349 14 L 1370 14 L 1370 56 L 1349 56 Z M 1349 14 " clip-rule="nonzero"/></clipPath><clipPath id="54035dcc45"><path d="M 1392.9375 -5.734375 L 1493.222656 184.367188 L 1254.765625 310.160156 L 1154.480469 120.058594 Z M 1392.9375 -5.734375 " clip-rule="nonzero"/></clipPath><clipPath id="12f75775b7"><path d="M 1392.9375 -5.734375 L 1493.222656 184.367188 L 1254.765625 310.160156 L 1154.480469 120.058594 Z M 1392.9375 -5.734375 " clip-rule="nonzero"/></clipPath><clipPath id="ebfce8c191"><path d="M 1310 36 L 1348 36 L 1348 69 L 1310 69 Z M 1310 36 " clip-rule="nonzero"/></clipPath><clipPath id="d95f887366"><path d="M 1392.9375 -5.734375 L 1493.222656 184.367188 L 1254.765625 310.160156 L 1154.480469 120.058594 Z M 1392.9375 -5.734375 " clip-rule="nonzero"/></clipPath><clipPath id="9201cf57d4"><path d="M 1392.9375 -5.734375 L 1493.222656 184.367188 L 1254.765625 310.160156 L 1154.480469 120.058594 Z M 1392.9375 -5.734375 " clip-rule="nonzero"/></clipPath><clipPath id="5277e9a726"><path d="M 1382 92 L 1420 92 L 1420 125 L 1382 125 Z M 1382 92 " clip-rule="nonzero"/></clipPath><clipPath id="f9cb02afce"><path d="M 1392.9375 -5.734375 L 1493.222656 184.367188 L 1254.765625 310.160156 L 1154.480469 120.058594 Z M 1392.9375 -5.734375 " clip-rule="nonzero"/></clipPath><clipPath id="3d23273729"><path d="M 1392.9375 -5.734375 L 1493.222656 184.367188 L 1254.765625 310.160156 L 1154.480469 120.058594 Z M 1392.9375 -5.734375 " clip-rule="nonzero"/></clipPath><clipPath id="93c1214109"><path d="M 1389 64 L 1432 64 L 1432 85 L 1389 85 Z M 1389 64 " clip-rule="nonzero"/></clipPath><clipPath id="a015bfed79"><path d="M 1392.9375 -5.734375 L 1493.222656 184.367188 L 1254.765625 310.160156 L 1154.480469 120.058594 Z M 1392.9375 -5.734375 " clip-rule="nonzero"/></clipPath><clipPath id="103707511b"><path d="M 1392.9375 -5.734375 L 1493.222656 184.367188 L 1254.765625 310.160156 L 1154.480469 120.058594 Z M 1392.9375 -5.734375 " clip-rule="nonzero"/></clipPath></defs><g clip-path="url(#d0c3f42048)"><g clip-path="url(#d9caea6da9)"><g clip-path="url(#15d98ce57e)"><path fill="#9cff1e" d="M 1321.707031 273.289062 C 1322.542969 273.175781 1323.34375 272.945312 1324.113281 272.589844 C 1324.878906 272.238281 1325.578125 271.777344 1326.203125 271.214844 C 1326.832031 270.652344 1327.363281 270.007812 1327.796875 269.28125 C 1328.230469 268.558594 1328.550781 267.785156 1328.75 266.964844 L 1373.480469 82.214844 C 1373.652344 81.429688 1373.710938 80.636719 1373.65625 79.835938 C 1373.597656 79.035156 1373.429688 78.257812 1373.152344 77.503906 C 1372.875 76.753906 1372.492188 76.054688 1372.015625 75.410156 C 1371.535156 74.765625 1370.972656 74.203125 1370.332031 73.71875 C 1369.691406 73.238281 1368.992188 72.855469 1368.242188 72.574219 C 1367.492188 72.289062 1366.714844 72.117188 1365.914062 72.058594 C 1365.113281 72 1364.320312 72.054688 1363.535156 72.222656 C 1362.75 72.390625 1362.003906 72.664062 1361.296875 73.046875 L 1193.40625 161.617188 C 1192.65625 162.011719 1191.980469 162.507812 1191.378906 163.105469 C 1190.78125 163.703125 1190.28125 164.375 1189.886719 165.125 C 1189.492188 165.875 1189.214844 166.664062 1189.058594 167.496094 C 1188.902344 168.328125 1188.871094 169.164062 1188.96875 170.007812 C 1189.066406 170.847656 1189.289062 171.65625 1189.628906 172.429688 C 1189.972656 173.207031 1190.421875 173.914062 1190.980469 174.550781 C 1191.535156 175.191406 1192.175781 175.730469 1192.894531 176.175781 C 1193.617188 176.621094 1194.386719 176.949219 1195.207031 177.160156 L 1247.484375 190.816406 L 1218.863281 227.578125 C 1218.523438 228.011719 1218.230469 228.476562 1217.984375 228.96875 C 1217.738281 229.460938 1217.539062 229.972656 1217.394531 230.507812 C 1217.246094 231.039062 1217.152344 231.578125 1217.113281 232.128906 C 1217.074219 232.679688 1217.089844 233.226562 1217.15625 233.773438 C 1217.226562 234.320312 1217.347656 234.855469 1217.519531 235.378906 C 1217.695312 235.902344 1217.917969 236.40625 1218.191406 236.882812 C 1218.464844 237.363281 1218.78125 237.8125 1219.144531 238.226562 C 1219.503906 238.644531 1219.902344 239.023438 1220.339844 239.359375 L 1246.796875 259.953125 C 1247.234375 260.292969 1247.695312 260.585938 1248.191406 260.835938 C 1248.683594 261.082031 1249.195312 261.28125 1249.726562 261.425781 C 1250.257812 261.574219 1250.800781 261.664062 1251.347656 261.707031 C 1251.898438 261.746094 1252.449219 261.730469 1252.996094 261.660156 C 1253.542969 261.59375 1254.078125 261.472656 1254.601562 261.296875 C 1255.125 261.125 1255.625 260.898438 1256.105469 260.628906 C 1256.585938 260.355469 1257.03125 260.035156 1257.449219 259.675781 C 1257.863281 259.3125 1258.242188 258.914062 1258.582031 258.480469 L 1287.164062 221.738281 L 1313.25 269.027344 C 1313.65625 269.765625 1314.164062 270.429688 1314.773438 271.015625 C 1315.382812 271.601562 1316.0625 272.085938 1316.816406 272.464844 C 1317.574219 272.84375 1318.367188 273.105469 1319.199219 273.246094 C 1320.03125 273.386719 1320.867188 273.398438 1321.707031 273.289062 Z M 1295.707031 202.445312 C 1295.542969 202.140625 1295.355469 201.847656 1295.15625 201.570312 C 1294.953125 201.289062 1294.734375 201.023438 1294.496094 200.769531 C 1294.261719 200.515625 1294.011719 200.277344 1293.746094 200.058594 C 1293.480469 199.835938 1293.203125 199.628906 1292.914062 199.441406 C 1292.625 199.253906 1292.324219 199.085938 1292.011719 198.933594 C 1291.703125 198.785156 1291.382812 198.652344 1291.054688 198.542969 C 1290.726562 198.429688 1290.394531 198.339844 1290.054688 198.269531 C 1289.71875 198.199219 1289.375 198.152344 1289.03125 198.125 C 1288.6875 198.097656 1288.34375 198.089844 1287.996094 198.105469 C 1287.652344 198.121094 1287.308594 198.15625 1286.96875 198.214844 C 1286.625 198.269531 1286.289062 198.347656 1285.960938 198.449219 C 1285.628906 198.546875 1285.304688 198.667969 1284.988281 198.804688 C 1284.671875 198.945312 1284.363281 199.101562 1284.066406 199.277344 C 1283.769531 199.457031 1283.484375 199.652344 1283.210938 199.863281 C 1282.941406 200.074219 1282.679688 200.304688 1282.4375 200.546875 C 1282.191406 200.792969 1281.964844 201.050781 1281.75 201.324219 L 1250.484375 241.515625 L 1237.226562 231.210938 L 1268.492188 191.015625 C 1268.910156 190.472656 1269.257812 189.886719 1269.53125 189.257812 C 1269.804688 188.628906 1270 187.976562 1270.113281 187.300781 C 1270.230469 186.625 1270.261719 185.945312 1270.207031 185.261719 C 1270.15625 184.578125 1270.023438 183.914062 1269.804688 183.261719 L 1269.179688 182.074219 C 1268.632812 181.03125 1267.894531 180.140625 1266.972656 179.40625 C 1266.046875 178.671875 1265.015625 178.15625 1263.875 177.859375 L 1220.324219 166.375 L 1352.695312 96.542969 L 1317.5 242.042969 Z M 1295.707031 202.445312 " fill-opacity="1" fill-rule="nonzero"/></g></g></g><g clip-path="url(#97eab1f454)"><g clip-path="url(#0eab03a43d)"><g clip-path="url(#7412ada5c7)"><path fill="#9cff1e" d="M 1378.0625 58.375 C 1378.226562 58.679688 1378.40625 58.976562 1378.605469 59.261719 C 1378.808594 59.546875 1379.023438 59.820312 1379.257812 60.078125 C 1379.492188 60.335938 1379.742188 60.578125 1380.003906 60.804688 C 1380.269531 61.03125 1380.546875 61.242188 1380.835938 61.433594 C 1381.125 61.625 1381.429688 61.800781 1381.738281 61.957031 C 1382.050781 62.109375 1382.371094 62.246094 1382.699219 62.359375 C 1383.03125 62.476562 1383.363281 62.570312 1383.703125 62.644531 C 1384.042969 62.714844 1384.386719 62.769531 1384.734375 62.796875 C 1385.082031 62.828125 1385.429688 62.835938 1385.777344 62.824219 C 1386.125 62.8125 1386.472656 62.777344 1386.816406 62.722656 C 1387.160156 62.664062 1387.5 62.589844 1387.832031 62.492188 C 1388.167969 62.394531 1388.492188 62.273438 1388.8125 62.136719 C 1389.132812 61.996094 1389.441406 61.839844 1389.742188 61.660156 C 1390.039062 61.484375 1390.328125 61.289062 1390.605469 61.074219 C 1390.878906 60.863281 1391.140625 60.632812 1391.386719 60.386719 C 1391.632812 60.140625 1391.863281 59.878906 1392.078125 59.605469 L 1407.4375 39.84375 C 1407.777344 39.410156 1408.070312 38.945312 1408.316406 38.453125 C 1408.566406 37.964844 1408.761719 37.453125 1408.910156 36.921875 C 1409.058594 36.390625 1409.152344 35.851562 1409.191406 35.300781 C 1409.234375 34.75 1409.21875 34.203125 1409.152344 33.65625 C 1409.085938 33.109375 1408.964844 32.574219 1408.792969 32.054688 C 1408.621094 31.53125 1408.398438 31.027344 1408.125 30.550781 C 1407.855469 30.070312 1407.539062 29.621094 1407.179688 29.203125 C 1406.820312 28.789062 1406.425781 28.410156 1405.988281 28.070312 C 1405.554688 27.730469 1405.09375 27.4375 1404.601562 27.191406 C 1404.109375 26.941406 1403.597656 26.746094 1403.066406 26.597656 C 1402.535156 26.449219 1401.996094 26.355469 1401.449219 26.316406 C 1400.898438 26.273438 1400.351562 26.289062 1399.804688 26.355469 C 1399.257812 26.421875 1398.722656 26.542969 1398.199219 26.714844 C 1397.675781 26.886719 1397.175781 27.109375 1396.695312 27.382812 C 1396.214844 27.652344 1395.769531 27.96875 1395.351562 28.328125 C 1394.933594 28.6875 1394.554688 29.082031 1394.21875 29.519531 L 1378.765625 49.375 C 1378.285156 50.015625 1377.902344 50.707031 1377.617188 51.453125 C 1377.335938 52.203125 1377.164062 52.976562 1377.101562 53.773438 C 1377.039062 54.570312 1377.089844 55.359375 1377.253906 56.140625 C 1377.414062 56.925781 1377.6875 57.667969 1378.0625 58.375 Z M 1378.0625 58.375 " fill-opacity="1" fill-rule="nonzero"/></g></g></g><g clip-path="url(#5ffced3f07)"><g clip-path="url(#54035dcc45)"><g clip-path="url(#12f75775b7)"><path fill="#9cff1e" d="M 1352.820312 48.796875 C 1352.90625 49.328125 1353.042969 49.84375 1353.230469 50.347656 C 1353.417969 50.851562 1353.648438 51.332031 1353.929688 51.789062 C 1354.207031 52.246094 1354.527344 52.675781 1354.890625 53.074219 C 1355.25 53.46875 1355.648438 53.828125 1356.078125 54.148438 C 1356.507812 54.46875 1356.964844 54.746094 1357.449219 54.980469 C 1357.929688 55.214844 1358.433594 55.398438 1358.953125 55.535156 C 1359.46875 55.671875 1359.996094 55.757812 1360.53125 55.796875 C 1361.070312 55.832031 1361.601562 55.816406 1362.136719 55.75 C 1362.667969 55.679688 1363.1875 55.566406 1363.699219 55.398438 C 1364.210938 55.230469 1364.699219 55.015625 1365.167969 54.753906 C 1365.636719 54.496094 1366.078125 54.191406 1366.488281 53.84375 C 1366.898438 53.5 1367.273438 53.117188 1367.609375 52.703125 C 1367.949219 52.285156 1368.242188 51.839844 1368.496094 51.363281 C 1368.746094 50.890625 1368.949219 50.398438 1369.109375 49.882812 C 1369.265625 49.371094 1369.371094 48.847656 1369.429688 48.3125 C 1369.484375 47.777344 1369.492188 47.246094 1369.445312 46.710938 L 1366.332031 21.761719 C 1366.285156 21.199219 1366.179688 20.648438 1366.019531 20.105469 C 1365.859375 19.566406 1365.648438 19.046875 1365.382812 18.546875 C 1365.117188 18.050781 1364.804688 17.582031 1364.445312 17.148438 C 1364.085938 16.710938 1363.6875 16.316406 1363.25 15.960938 C 1362.8125 15.605469 1362.339844 15.300781 1361.839844 15.039062 C 1361.339844 14.78125 1360.816406 14.574219 1360.277344 14.417969 C 1359.734375 14.261719 1359.179688 14.164062 1358.617188 14.121094 C 1358.054688 14.078125 1357.492188 14.09375 1356.933594 14.164062 C 1356.375 14.234375 1355.828125 14.359375 1355.292969 14.539062 C 1354.757812 14.71875 1354.246094 14.953125 1353.757812 15.234375 C 1353.269531 15.519531 1352.816406 15.851562 1352.394531 16.226562 C 1351.976562 16.601562 1351.59375 17.015625 1351.257812 17.46875 C 1350.921875 17.917969 1350.632812 18.402344 1350.390625 18.910156 C 1350.152344 19.421875 1349.964844 19.953125 1349.832031 20.5 C 1349.699219 21.046875 1349.621094 21.605469 1349.601562 22.167969 C 1349.578125 22.730469 1349.613281 23.292969 1349.707031 23.847656 Z M 1352.820312 48.796875 " fill-opacity="1" fill-rule="nonzero"/></g></g></g><g clip-path="url(#ebfce8c191)"><g clip-path="url(#d95f887366)"><g clip-path="url(#9201cf57d4)"><path fill="#9cff1e" d="M 1311.953125 48.695312 C 1312.519531 49.753906 1313.277344 50.648438 1314.226562 51.382812 L 1334.085938 66.832031 C 1334.519531 67.167969 1334.984375 67.460938 1335.476562 67.707031 C 1335.972656 67.949219 1336.484375 68.144531 1337.015625 68.289062 C 1337.546875 68.433594 1338.085938 68.523438 1338.636719 68.5625 C 1339.183594 68.601562 1339.734375 68.585938 1340.28125 68.515625 C 1340.824219 68.445312 1341.359375 68.320312 1341.882812 68.144531 C 1342.402344 67.972656 1342.902344 67.746094 1343.382812 67.472656 C 1343.859375 67.199219 1344.304688 66.878906 1344.722656 66.519531 C 1345.136719 66.15625 1345.511719 65.757812 1345.847656 65.320312 C 1346.183594 64.886719 1346.476562 64.421875 1346.722656 63.929688 C 1346.964844 63.433594 1347.160156 62.921875 1347.304688 62.390625 C 1347.449219 61.859375 1347.539062 61.320312 1347.578125 60.769531 C 1347.613281 60.21875 1347.597656 59.671875 1347.527344 59.125 C 1347.457031 58.578125 1347.335938 58.046875 1347.160156 57.523438 C 1346.984375 57 1346.757812 56.5 1346.484375 56.023438 C 1346.210938 55.546875 1345.894531 55.101562 1345.53125 54.683594 C 1345.167969 54.269531 1344.769531 53.894531 1344.332031 53.558594 L 1324.476562 38.105469 C 1324.101562 37.816406 1323.703125 37.5625 1323.285156 37.339844 C 1322.867188 37.117188 1322.429688 36.929688 1321.980469 36.78125 C 1321.53125 36.632812 1321.070312 36.523438 1320.601562 36.449219 C 1320.132812 36.378906 1319.660156 36.347656 1319.1875 36.359375 C 1318.710938 36.367188 1318.242188 36.417969 1317.773438 36.507812 C 1317.308594 36.59375 1316.855469 36.722656 1316.410156 36.890625 C 1315.964844 37.054688 1315.539062 37.257812 1315.128906 37.496094 C 1314.71875 37.734375 1314.332031 38.007812 1313.96875 38.3125 C 1313.605469 38.617188 1313.269531 38.949219 1312.960938 39.3125 C 1312.652344 39.671875 1312.378906 40.058594 1312.136719 40.464844 C 1311.894531 40.875 1311.691406 41.300781 1311.519531 41.742188 C 1311.351562 42.183594 1311.21875 42.640625 1311.125 43.105469 C 1311.035156 43.570312 1310.980469 44.039062 1310.96875 44.511719 C 1310.953125 44.988281 1310.980469 45.460938 1311.050781 45.929688 C 1311.117188 46.398438 1311.222656 46.859375 1311.367188 47.3125 C 1311.515625 47.761719 1311.695312 48.199219 1311.914062 48.621094 Z M 1311.953125 48.695312 " fill-opacity="1" fill-rule="nonzero"/></g></g></g><g clip-path="url(#5277e9a726)"><g clip-path="url(#f9cb02afce)"><g clip-path="url(#3d23273729)"><path fill="#9cff1e" d="M 1384.683594 95.546875 C 1384.347656 95.980469 1384.054688 96.445312 1383.804688 96.9375 C 1383.558594 97.429688 1383.359375 97.945312 1383.214844 98.476562 C 1383.066406 99.007812 1382.976562 99.546875 1382.933594 100.097656 C 1382.894531 100.648438 1382.910156 101.195312 1382.976562 101.746094 C 1383.046875 102.292969 1383.167969 102.828125 1383.34375 103.351562 C 1383.515625 103.875 1383.738281 104.375 1384.011719 104.855469 C 1384.285156 105.332031 1384.605469 105.78125 1384.964844 106.195312 C 1385.328125 106.613281 1385.726562 106.992188 1386.160156 107.328125 L 1406.019531 122.78125 C 1406.453125 123.117188 1406.917969 123.410156 1407.40625 123.660156 C 1407.898438 123.90625 1408.410156 124.101562 1408.941406 124.25 C 1409.472656 124.394531 1410.011719 124.488281 1410.5625 124.53125 C 1411.109375 124.570312 1411.65625 124.558594 1412.203125 124.488281 C 1412.75 124.421875 1413.285156 124.300781 1413.808594 124.128906 C 1414.328125 123.957031 1414.832031 123.734375 1415.308594 123.464844 C 1415.789062 123.191406 1416.238281 122.878906 1416.652344 122.519531 C 1417.070312 122.160156 1417.449219 121.761719 1417.789062 121.328125 C 1418.125 120.894531 1418.417969 120.433594 1418.667969 119.941406 C 1418.914062 119.449219 1419.113281 118.9375 1419.257812 118.40625 C 1419.40625 117.875 1419.5 117.335938 1419.542969 116.789062 C 1419.582031 116.238281 1419.570312 115.691406 1419.503906 115.144531 C 1419.433594 114.597656 1419.316406 114.0625 1419.144531 113.542969 C 1418.972656 113.019531 1418.75 112.519531 1418.480469 112.039062 C 1418.207031 111.558594 1417.894531 111.109375 1417.535156 110.695312 C 1417.175781 110.277344 1416.777344 109.898438 1416.34375 109.558594 L 1396.488281 94.109375 C 1396.054688 93.765625 1395.589844 93.472656 1395.097656 93.222656 C 1394.605469 92.972656 1394.09375 92.769531 1393.558594 92.621094 C 1393.027344 92.472656 1392.488281 92.378906 1391.9375 92.335938 C 1391.386719 92.296875 1390.835938 92.308594 1390.289062 92.375 C 1389.738281 92.441406 1389.203125 92.5625 1388.675781 92.734375 C 1388.152344 92.90625 1387.648438 93.128906 1387.167969 93.402344 C 1386.6875 93.671875 1386.238281 93.992188 1385.820312 94.351562 C 1385.402344 94.710938 1385.023438 95.109375 1384.683594 95.546875 Z M 1384.683594 95.546875 " fill-opacity="1" fill-rule="nonzero"/></g></g></g><g clip-path="url(#93c1214109)"><g clip-path="url(#a015bfed79)"><g clip-path="url(#103707511b)"><path fill="#9cff1e" d="M 1431.230469 72.273438 C 1431.171875 71.714844 1431.058594 71.171875 1430.890625 70.636719 C 1430.722656 70.101562 1430.503906 69.589844 1430.234375 69.101562 C 1429.964844 68.609375 1429.648438 68.152344 1429.289062 67.722656 C 1428.925781 67.296875 1428.527344 66.910156 1428.085938 66.5625 C 1427.648438 66.214844 1427.175781 65.914062 1426.679688 65.664062 C 1426.179688 65.410156 1425.660156 65.207031 1425.121094 65.058594 C 1424.582031 64.910156 1424.03125 64.816406 1423.472656 64.777344 C 1422.914062 64.738281 1422.359375 64.753906 1421.800781 64.828125 L 1396.855469 67.941406 C 1396.292969 67.988281 1395.742188 68.09375 1395.199219 68.253906 C 1394.65625 68.414062 1394.136719 68.625 1393.640625 68.890625 C 1393.140625 69.15625 1392.675781 69.464844 1392.238281 69.824219 C 1391.804688 70.183594 1391.410156 70.582031 1391.054688 71.023438 C 1390.699219 71.460938 1390.390625 71.929688 1390.132812 72.429688 C 1389.871094 72.933594 1389.664062 73.453125 1389.511719 73.996094 C 1389.355469 74.539062 1389.257812 75.09375 1389.214844 75.65625 C 1389.171875 76.21875 1389.183594 76.777344 1389.253906 77.339844 C 1389.324219 77.898438 1389.449219 78.445312 1389.632812 78.980469 C 1389.8125 79.515625 1390.042969 80.027344 1390.328125 80.511719 C 1390.613281 81 1390.941406 81.457031 1391.316406 81.875 C 1391.695312 82.296875 1392.109375 82.675781 1392.558594 83.015625 C 1393.011719 83.351562 1393.492188 83.640625 1394.003906 83.878906 C 1394.515625 84.121094 1395.042969 84.308594 1395.59375 84.441406 C 1396.140625 84.574219 1396.695312 84.652344 1397.261719 84.671875 C 1397.824219 84.695312 1398.386719 84.65625 1398.941406 84.566406 L 1423.890625 81.453125 C 1424.429688 81.386719 1424.960938 81.273438 1425.476562 81.105469 C 1425.996094 80.9375 1426.492188 80.71875 1426.96875 80.453125 C 1427.441406 80.191406 1427.886719 79.882812 1428.304688 79.53125 C 1428.71875 79.179688 1429.097656 78.789062 1429.4375 78.363281 C 1429.777344 77.9375 1430.074219 77.484375 1430.324219 77.003906 C 1430.574219 76.519531 1430.777344 76.015625 1430.929688 75.496094 C 1431.085938 74.972656 1431.1875 74.441406 1431.238281 73.898438 C 1431.285156 73.355469 1431.285156 72.816406 1431.230469 72.273438 Z M 1431.230469 72.273438 " fill-opacity="1" fill-rule="nonzero"/></g></g></g><g fill="#000000" fill-opacity="1"><g transform="translate(13.741626, 310.049278)"><g><path d="M 7.875 0 L 84.84375 -141.40625 L 126.0625 -141.40625 L 203.03125 0 L 167.671875 0 L 150.5 -31.3125 L 60.40625 -31.3125 L 43.234375 0 Z M 72.71875 -55.953125 L 138.171875 -55.953125 L 105.453125 -115.34375 Z M 72.71875 -55.953125 "/></g></g></g><g fill="#000000" fill-opacity="1"><g transform="translate(224.643065, 310.049278)"><g><path d="M 9.90625 0 L 9.90625 -141.40625 L 54.75 -141.40625 L 118.171875 -36.96875 L 181.609375 -141.40625 L 226.453125 -141.40625 L 226.453125 0 L 194.546875 0 L 194.546875 -103.640625 L 130.296875 0 L 106.265625 0 L 41.8125 -103.640625 L 41.8125 0 Z M 9.90625 0 "/></g></g></g><g fill="#000000" fill-opacity="1"><g transform="translate(460.998094, 310.049278)"><g><path d="M 9.90625 0 L 9.90625 -141.40625 L 41.8125 -141.40625 L 41.8125 0 Z M 9.90625 0 "/></g></g></g><g fill="#000000" fill-opacity="1"><g transform="translate(512.713406, 310.049278)"><g><path d="M 92.125 2.015625 C 74.75 2.015625 59.765625 -0.84375 47.171875 -6.5625 C 34.578125 -12.289062 24.878906 -20.570312 18.078125 -31.40625 C 11.273438 -42.25 7.875 -55.347656 7.875 -70.703125 C 7.875 -93.867188 15.648438 -111.78125 31.203125 -124.4375 C 46.765625 -137.101562 69.085938 -143.4375 98.171875 -143.4375 C 117.035156 -143.4375 132.757812 -141.046875 145.34375 -136.265625 C 157.9375 -131.484375 167.53125 -124.847656 174.125 -116.359375 C 180.726562 -107.878906 184.367188 -97.914062 185.046875 -86.46875 L 152.71875 -86.46875 C 152.1875 -89.425781 151.039062 -92.617188 149.28125 -96.046875 C 147.53125 -99.484375 144.703125 -102.75 140.796875 -105.84375 C 136.898438 -108.945312 131.515625 -111.507812 124.640625 -113.53125 C 117.773438 -115.550781 108.953125 -116.5625 98.171875 -116.5625 C 87.941406 -116.5625 79.320312 -115.515625 72.3125 -113.421875 C 65.3125 -111.335938 59.65625 -108.578125 55.34375 -105.140625 C 51.039062 -101.710938 47.773438 -97.941406 45.546875 -93.828125 C 43.328125 -89.722656 41.8125 -85.617188 41 -81.515625 C 40.195312 -77.410156 39.796875 -73.671875 39.796875 -70.296875 C 39.796875 -66.796875 40.195312 -62.957031 41 -58.78125 C 41.8125 -54.613281 43.328125 -50.441406 45.546875 -46.265625 C 47.773438 -42.085938 51.039062 -38.28125 55.34375 -34.84375 C 59.65625 -31.414062 65.3125 -28.625 72.3125 -26.46875 C 79.320312 -24.3125 87.941406 -23.234375 98.171875 -23.234375 C 108.003906 -23.234375 116.351562 -24.242188 123.21875 -26.265625 C 130.09375 -28.285156 135.6875 -30.875 140 -34.03125 C 144.3125 -37.195312 147.472656 -40.5 149.484375 -43.9375 C 151.503906 -47.375 152.582031 -50.4375 152.71875 -53.125 L 95.75 -53.125 L 95.75 -75.546875 L 185.046875 -75.546875 L 185.046875 0 L 159.1875 0 L 158.171875 -22.828125 C 151.304688 -15.421875 142.382812 -9.425781 131.40625 -4.84375 C 120.4375 -0.269531 107.34375 2.015625 92.125 2.015625 Z M 92.125 2.015625 "/></g></g></g><g fill="#000000" fill-opacity="1"><g transform="translate(705.635715, 310.049278)"><g><path d="M 101.203125 2.015625 C 81.953125 2.015625 65.320312 0.632812 51.3125 -2.125 C 37.300781 -4.882812 26.554688 -9.929688 19.078125 -17.265625 C 11.609375 -24.609375 7.875 -35.015625 7.875 -48.484375 L 39.796875 -48.484375 C 39.796875 -42.828125 41.644531 -38.144531 45.34375 -34.4375 C 49.050781 -30.738281 55.515625 -28.015625 64.734375 -26.265625 C 73.960938 -24.515625 86.796875 -23.640625 103.234375 -23.640625 C 116.566406 -23.640625 127.101562 -24.242188 134.84375 -25.453125 C 142.59375 -26.660156 148.148438 -28.546875 151.515625 -31.109375 C 154.878906 -33.671875 156.5625 -37.039062 156.5625 -41.21875 C 156.5625 -44.582031 155.820312 -47.304688 154.34375 -49.390625 C 152.863281 -51.484375 150.035156 -53.132812 145.859375 -54.34375 C 141.679688 -55.550781 135.785156 -56.523438 128.171875 -57.265625 C 120.566406 -58.003906 110.566406 -58.710938 98.171875 -59.390625 C 77.972656 -60.472656 61.609375 -62.425781 49.078125 -65.25 C 36.554688 -68.082031 27.398438 -72.523438 21.609375 -78.578125 C 15.816406 -84.640625 12.921875 -92.925781 12.921875 -103.4375 C 12.921875 -113.800781 16.320312 -121.878906 23.125 -127.671875 C 29.925781 -133.460938 39.585938 -137.535156 52.109375 -139.890625 C 64.640625 -142.253906 79.59375 -143.4375 96.96875 -143.4375 C 114.613281 -143.4375 129.832031 -141.851562 142.625 -138.6875 C 155.414062 -135.519531 165.242188 -130.398438 172.109375 -123.328125 C 178.984375 -116.253906 182.421875 -106.925781 182.421875 -95.34375 L 150.5 -95.34375 C 150.5 -101.269531 148.546875 -105.847656 144.640625 -109.078125 C 140.734375 -112.316406 134.570312 -114.578125 126.15625 -115.859375 C 117.738281 -117.140625 106.660156 -117.78125 92.921875 -117.78125 C 80.128906 -117.78125 70.226562 -117.273438 63.21875 -116.265625 C 56.21875 -115.253906 51.40625 -113.566406 48.78125 -111.203125 C 46.15625 -108.847656 44.84375 -105.71875 44.84375 -101.8125 C 44.84375 -98.71875 45.582031 -96.160156 47.0625 -94.140625 C 48.550781 -92.117188 51.210938 -90.5 55.046875 -89.28125 C 58.890625 -88.070312 64.3125 -87.0625 71.3125 -86.25 C 78.3125 -85.445312 87.265625 -84.707031 98.171875 -84.03125 C 112.179688 -83.226562 124.738281 -82.253906 135.84375 -81.109375 C 146.957031 -79.960938 156.421875 -78.039062 164.234375 -75.34375 C 172.046875 -72.65625 178.039062 -68.71875 182.21875 -63.53125 C 186.394531 -58.34375 188.484375 -51.304688 188.484375 -42.421875 C 188.484375 -32.992188 186.328125 -25.347656 182.015625 -19.484375 C 177.703125 -13.628906 171.640625 -9.15625 163.828125 -6.0625 C 156.023438 -2.96875 146.800781 -0.847656 136.15625 0.296875 C 125.519531 1.441406 113.867188 2.015625 101.203125 2.015625 Z M 101.203125 2.015625 "/></g></g></g><g fill="#000000" fill-opacity="1"><g transform="translate(901.992202, 310.049278)"><g><path d="M 96.765625 2.015625 C 76.023438 2.015625 59.125 -0.84375 46.0625 -6.5625 C 33 -12.289062 23.367188 -20.609375 17.171875 -31.515625 C 10.972656 -42.421875 7.875 -55.550781 7.875 -70.90625 C 7.875 -86.257812 10.972656 -99.359375 17.171875 -110.203125 C 23.367188 -121.046875 33 -129.296875 46.0625 -134.953125 C 59.125 -140.609375 76.023438 -143.4375 96.765625 -143.4375 C 117.503906 -143.4375 134.40625 -140.570312 147.46875 -134.84375 C 160.53125 -129.125 170.160156 -120.875 176.359375 -110.09375 C 182.554688 -99.320312 185.65625 -86.257812 185.65625 -70.90625 C 185.65625 -55.550781 182.554688 -42.453125 176.359375 -31.609375 C 170.160156 -20.773438 160.53125 -12.460938 147.46875 -6.671875 C 134.40625 -0.878906 117.503906 2.015625 96.765625 2.015625 Z M 96.765625 -24.84375 C 116.691406 -24.84375 131.164062 -28.445312 140.1875 -35.65625 C 149.21875 -42.863281 153.734375 -54.613281 153.734375 -70.90625 C 153.734375 -87.070312 149.253906 -98.722656 140.296875 -105.859375 C 131.335938 -112.992188 116.828125 -116.5625 96.765625 -116.5625 C 76.828125 -116.5625 62.347656 -113.023438 53.328125 -105.953125 C 44.304688 -98.878906 39.796875 -87.195312 39.796875 -70.90625 C 39.796875 -54.613281 44.304688 -42.863281 53.328125 -35.65625 C 62.347656 -28.445312 76.828125 -24.84375 96.765625 -24.84375 Z M 96.765625 -24.84375 "/></g></g></g><g fill="#000000" fill-opacity="1"><g transform="translate(1095.520513, 310.049278)"><g><path d="M 9.90625 0 L 9.90625 -141.40625 L 41.8125 -141.40625 L 41.8125 -26.875 L 155.34375 -26.875 L 155.34375 0 Z M 9.90625 0 "/></g></g></g></svg>